<?xml version="1.0" encoding="UTF-8" standalone="no"?>
<svg
   version="1.0"
   width="341.21252"
   height="351.4624"
   id="svg1"
   sodipodi:docname="gnuc.svg"
   inkscape:version="1.3.2 (091e20ef0f, 2023-11-25)"
   xmlns:inkscape="http://www.inkscape.org/namespaces/inkscape"
   xmlns:sodipodi="http://sodipodi.sourceforge.net/DTD/sodipodi-0.dtd"
   xmlns="http://www.w3.org/2000/svg"
   xmlns:svg="http://www.w3.org/2000/svg">
  <defs
     id="defs1" />
  <sodipodi:namedview
     id="namedview1"
     pagecolor="#ffffff"
     bordercolor="#666666"
     borderopacity="1.0"
     inkscape:showpageshadow="2"
     inkscape:pageopacity="0.0"
     inkscape:pagecheckerboard="0"
     inkscape:deskcolor="#d1d1d1"
     inkscape:export-bgcolor="#f3eddfff"
     inkscape:zoom="1.2719346"
     inkscape:cx="170.60626"
     inkscape:cy="175.71659"
     inkscape:window-width="1920"
     inkscape:window-height="1011"
     inkscape:window-x="0"
     inkscape:window-y="0"
     inkscape:window-maximized="1"
     inkscape:current-layer="svg1" />
  <rect
     style="fill:#f3eddf;fill-opacity:1"
     id="rect1"
     width="413.49109"
     height="422.01956"
     x="-27.299089"
     y="-25.146242" />
  <path
     d="M 82.586669,347.33605 C 43.927169,333.5211 15.856542,299.14464 4.7423093,252.00465 -0.30175105,230.60946 -1.728038,195.25609 2.4534163,195.25609 c 1.38924,0 5.099626,9.70072 8.2453777,21.55716 6.88392,25.94452 18.625388,50.34155 29.967016,62.26707 18.838729,19.80835 65.49961,27.56622 92.38507,15.35987 20.94303,-9.5085 29.43591,-32.10791 20.32889,-54.09463 -7.03753,-16.98988 -23.00294,-22.67095 -52.74161,-18.76734 0,0 -18.225504,-19.61799 -24.031921,-54.45649 l 18.680963,1.69391 c 22.499928,2.04023 39.487938,-2.93334 48.304978,-14.14211 8.28529,-10.53309 8.10614,-14.60682 -1.11395,-25.32571 -13.30445,-15.46729 -37.1933,-11.54909 -85.561831,14.03365 L 32.511454,102.47143 42.742959,94.667451 C 68.383209,75.11059 112.90339,65.33358 138.23993,73.69542 c 23.0783,7.61648 40.01713,37.83838 35.49236,63.32381 -3.0592,17.22988 -16.87495,41.36226 -27.54878,48.12041 l -9.20507,5.82823 12.71489,5.7336 c 21.60667,9.74311 34.7971,2.29512 50.5565,-28.54673 21.80948,-42.68159 35.95449,-53.73069 68.84657,-53.77798 15.31518,-0.022 20.7661,1.58448 31.93654,9.41259 27.87901,19.53706 43.05908,59.99383 39.72492,105.86962 -4.2233,58.10163 -31.7443,93.34329 -72.89389,93.34329 -22.58329,0 -37.13964,-7.92075 -48.72686,-26.51445 -10.17753,-16.33229 -14.76395,-48.67868 -8.91924,-62.90787 2.80403,-6.82637 3.31087,-7.05791 3.49418,-1.59683 0.33693,10.04003 11.75936,26.35863 22.24604,31.78149 25.72967,13.30534 62.66652,-3.41142 77.28005,-34.97515 11.09507,-23.9638 5.14273,-70.18664 -10.08748,-78.33768 -3.18631,-1.70528 -11.05995,-3.1005 -17.49644,-3.1005 -13.68226,0 -24.42731,9.83653 -39.49177,36.15272 -5.20821,9.09839 -13.9732,20.85401 -19.47777,26.12354 -8.94352,8.56184 -12.13717,9.58097 -30.02419,9.58097 h -20.01655 l 6.47003,14.37144 c 9.26095,20.57068 8.82279,53.99335 -0.97439,74.33978 -8.65704,17.97905 -28.67358,36.18122 -44.67602,40.62666 -15.57802,4.32747 -40.945848,3.76797 -54.876891,-1.21033 z M 157.96362,69.30999 c -8.85472,-15.10934 -14.30406,-43.317581 -8.36834,-43.317581 6.97229,15.126161 21.26491,28.620943 36.56863,38.037101 27.48682,13.30607 55.35848,7.93527 85.80838,-16.53502 6.70348,-5.38696 12.63984,-9.195101 13.19203,-8.462541 7.4352,11.538535 20.2965,20.967563 24.54769,34.375751 0,5.65728 -24.35352,21.938881 -43.57005,29.12862 -47.6295,13.72053 -80.04616,8.29297 -108.17834,-33.22633 z M 181.96585,34.383479 212.97496,-2.272522e-7 247.43575,31.900669 C 235.64858,41.6088 227.13976,56.675369 213.67373,64.31626 203.03354,56.472524 187.1529,47.224067 181.96585,34.383479 Z"
     style="fill:#da70d6"
     id="path1" />
</svg>
